<svg width="22" height="15" viewBox="0 0 22 15" fill="none" xmlns="http://www.w3.org/2000/svg">
<g id="Group 702">
<g id="Vector">
<path d="M18.9302 3H15.8605V6H18.9302V3Z" fill="url(#paint0_linear_1066_3756)"/>
<path d="M18.9302 9H15.8605V12H18.9302V9Z" fill="url(#paint1_linear_1066_3756)"/>
<path d="M15.8605 0H12.7907V3H15.8605V0Z" fill="url(#paint2_linear_1066_3756)"/>
<path d="M15.8605 12H12.7907V15H15.8605V12Z" fill="url(#paint3_linear_1066_3756)"/>
<path d="M6.13954 3H3.06977V6H6.13954V3Z" fill="url(#paint4_linear_1066_3756)"/>
<path d="M6.13954 9H3.06977V12H6.13954V9Z" fill="url(#paint5_linear_1066_3756)"/>
<path d="M3.06977 0H0V3H3.06977V0Z" fill="url(#paint6_linear_1066_3756)"/>
<path d="M3.06977 12H0V15H3.06977V12Z" fill="url(#paint7_linear_1066_3756)"/>
<path d="M22 6H18.9302V9H22V6Z" fill="url(#paint8_linear_1066_3756)"/>
<path d="M9.2093 6H6.13954V9H9.2093V6Z" fill="url(#paint9_linear_1066_3756)"/>
</g>
</g>
<defs>
<linearGradient id="paint0_linear_1066_3756" x1="11" y1="0" x2="11" y2="15" gradientUnits="userSpaceOnUse">
<stop stop-color="#FFC0FB"/>
<stop offset="1" stop-color="#D1CFFD"/>
</linearGradient>
<linearGradient id="paint1_linear_1066_3756" x1="11" y1="0" x2="11" y2="15" gradientUnits="userSpaceOnUse">
<stop stop-color="#FFC0FB"/>
<stop offset="1" stop-color="#D1CFFD"/>
</linearGradient>
<linearGradient id="paint2_linear_1066_3756" x1="11" y1="0" x2="11" y2="15" gradientUnits="userSpaceOnUse">
<stop stop-color="#FFC0FB"/>
<stop offset="1" stop-color="#D1CFFD"/>
</linearGradient>
<linearGradient id="paint3_linear_1066_3756" x1="11" y1="0" x2="11" y2="15" gradientUnits="userSpaceOnUse">
<stop stop-color="#FFC0FB"/>
<stop offset="1" stop-color="#D1CFFD"/>
</linearGradient>
<linearGradient id="paint4_linear_1066_3756" x1="11" y1="0" x2="11" y2="15" gradientUnits="userSpaceOnUse">
<stop stop-color="#FFC0FB"/>
<stop offset="1" stop-color="#D1CFFD"/>
</linearGradient>
<linearGradient id="paint5_linear_1066_3756" x1="11" y1="0" x2="11" y2="15" gradientUnits="userSpaceOnUse">
<stop stop-color="#FFC0FB"/>
<stop offset="1" stop-color="#D1CFFD"/>
</linearGradient>
<linearGradient id="paint6_linear_1066_3756" x1="11" y1="0" x2="11" y2="15" gradientUnits="userSpaceOnUse">
<stop stop-color="#FFC0FB"/>
<stop offset="1" stop-color="#D1CFFD"/>
</linearGradient>
<linearGradient id="paint7_linear_1066_3756" x1="11" y1="0" x2="11" y2="15" gradientUnits="userSpaceOnUse">
<stop stop-color="#FFC0FB"/>
<stop offset="1" stop-color="#D1CFFD"/>
</linearGradient>
<linearGradient id="paint8_linear_1066_3756" x1="11" y1="0" x2="11" y2="15" gradientUnits="userSpaceOnUse">
<stop stop-color="#FFC0FB"/>
<stop offset="1" stop-color="#D1CFFD"/>
</linearGradient>
<linearGradient id="paint9_linear_1066_3756" x1="11" y1="0" x2="11" y2="15" gradientUnits="userSpaceOnUse">
<stop stop-color="#FFC0FB"/>
<stop offset="1" stop-color="#D1CFFD"/>
</linearGradient>
</defs>
</svg>
