<svg width="49" height="12" viewBox="0 0 49 12" fill="none" xmlns="http://www.w3.org/2000/svg">
<g id="Group 36015">
<g id="&#240;&#159;&#166;&#134; icon &#34;heart&#34;">
<path id="Vector" d="M5.45455 0H2.72727V1.2H1.36364V2.4H0V6H1.36364V7.2H2.72727V8.4H4.09091V9.6H5.45455V10.8H6.81818V12H8.18182V10.8H9.54545V9.6H10.9091V8.4H12.2727V7.2H13.6364V6H15V2.4H13.6364V1.2H12.2727V0H9.54545V1.2H8.18182V2.4H6.81818V1.2H5.45455V0ZM5.45455 1.2V2.4H6.81818V3.6H8.18182V2.4H9.54545V1.2H12.2727V2.4H13.6364V6H12.2727V7.2H10.9091V8.4H9.54545V9.6H8.18182V10.8H6.81818V9.6H5.45455V8.4H4.09091V7.2H2.72727V6H1.36364V2.4H2.72727V1.2H5.45455Z" fill="#F98AF4"/>
</g>
<g id="&#240;&#159;&#166;&#134; icon &#34;heart&#34;_2">
<path id="Vector_2" d="M22.4545 0H19.7273V1.2H18.3636V2.4H17V6H18.3636V7.2H19.7273V8.4H21.0909V9.6H22.4545V10.8H23.8182V12H25.1818V10.8H26.5455V9.6H27.9091V8.4H29.2727V7.2H30.6364V6H32V2.4H30.6364V1.2H29.2727V0H26.5455V1.2H25.1818V2.4H23.8182V1.2H22.4545V0ZM22.4545 1.2V2.4H23.8182V3.6H25.1818V2.4H26.5455V1.2H29.2727V2.4H30.6364V6H29.2727V7.2H27.9091V8.4H26.5455V9.6H25.1818V10.8H23.8182V9.6H22.4545V8.4H21.0909V7.2H19.7273V6H18.3636V2.4H19.7273V1.2H22.4545Z" fill="#F98AF4"/>
</g>
<g id="&#240;&#159;&#166;&#134; icon &#34;heart&#34;_3">
<path id="Vector_3" d="M39.4545 0H36.7273V1.2H35.3636V2.4H34V6H35.3636V7.2H36.7273V8.4H38.0909V9.6H39.4545V10.8H40.8182V12H42.1818V10.8H43.5455V9.6H44.9091V8.4H46.2727V7.2H47.6364V6H49V2.4H47.6364V1.2H46.2727V0H43.5455V1.2H42.1818V2.4H40.8182V1.2H39.4545V0ZM39.4545 1.2V2.4H40.8182V3.6H42.1818V2.4H43.5455V1.2H46.2727V2.4H47.6364V6H46.2727V7.2H44.9091V8.4H43.5455V9.6H42.1818V10.8H40.8182V9.6H39.4545V8.4H38.0909V7.2H36.7273V6H35.3636V2.4H36.7273V1.2H39.4545Z" fill="#F98AF4"/>
</g>
</g>
</svg>
